<svg width="19" height="19" viewBox="0 0 19 19" fill="none" xmlns="http://www.w3.org/2000/svg">
<path d="M9.16602 0C9.80131 0 10.4232 0.0639536 11.0234 0.1875C11.4026 0.265751 11.6784 0.595381 11.6885 0.982422C11.6984 1.3694 11.44 1.71278 11.0654 1.81055C9.14439 2.31145 7.7267 4.05917 7.72656 6.13574C7.72679 8.60399 9.72803 10.6053 12.1963 10.6055C14.2729 10.6055 16.0215 9.18854 16.5225 7.26758L16.5703 7.13281C16.7068 6.8325 17.0118 6.63572 17.3506 6.64453C17.7376 6.65481 18.0664 6.9304 18.1445 7.30957C18.268 7.90961 18.333 8.53098 18.333 9.16602C18.3328 14.2284 14.2285 18.333 9.16602 18.333C4.1037 18.3328 0.000230874 14.2283 0 9.16602C0.000176141 4.10366 4.10366 0.000176145 9.16602 0Z" fill="currentColor"/>
</svg>
