<svg width="106" height="102" viewBox="0 0 106 102" fill="none" xmlns="http://www.w3.org/2000/svg">
<path d="M131.722 7.63657L124.908 0.822279C124.651 0.565137 124.329 0.452637 123.992 0.452637C123.654 0.452637 123.333 0.581208 123.076 0.822279L110.845 13.0526C105.528 9.45028 99.2513 7.52964 92.8291 7.54014C84.6005 7.54014 76.3719 10.6741 70.088 16.958L53.7112 33.3348C53.472 33.5764 53.3377 33.9027 53.3377 34.2428C53.3377 34.5829 53.472 34.9092 53.7112 35.1509L97.3773 78.8169C97.6345 79.0741 97.9559 79.1866 98.2934 79.1866C98.6148 79.1866 98.9523 79.058 99.2094 78.8169L115.586 62.4401C126.659 51.3508 127.961 34.2026 119.492 21.6991L131.722 9.46871C132.22 8.95442 132.22 8.13478 131.722 7.63657ZM77.2719 71.5848C77.0303 71.3455 76.704 71.2113 76.3639 71.2113C76.0238 71.2113 75.6975 71.3455 75.4559 71.5848L64.7523 82.2884L50.2398 67.7758L60.9594 57.0562C61.4577 56.558 61.4577 55.7383 60.9594 55.2401L55.1094 49.3901C54.8678 49.1509 54.5415 49.0166 54.2014 49.0166C53.8613 49.0166 53.535 49.1509 53.2934 49.3901L42.5737 60.1098L35.663 53.1991C35.543 53.079 35.4001 52.9844 35.2427 52.9209C35.0853 52.8573 34.9166 52.8262 34.7469 52.8294C34.4255 52.8294 34.088 52.958 33.8309 53.1991L17.4702 69.5758C6.39694 80.6491 5.09515 97.8134 13.5648 110.317L1.33444 122.547C1.09516 122.789 0.960938 123.115 0.960938 123.455C0.960938 123.795 1.09516 124.122 1.33444 124.363L8.14872 131.178C8.40587 131.435 8.7273 131.547 9.0648 131.547C9.4023 131.547 9.72372 131.419 9.98087 131.178L22.2112 118.947C27.6273 122.628 33.9273 124.46 40.2273 124.46C48.4559 124.46 56.6844 121.326 62.9684 115.042L79.3452 98.6651C79.8434 98.1669 79.8434 97.3473 79.3452 96.8491L72.4344 89.9384L83.1541 79.2187C83.6523 78.7205 83.6523 77.9009 83.1541 77.4026L77.2719 71.5848Z" fill="currentColor" fill-opacity="0.05"/>
</svg>
