<svg width="1em" height="1em" viewBox="0 0 20 21" fill="none" xmlns="http://www.w3.org/2000/svg">
<path d="M8.33301 1.9126C12.0149 1.9126 15 4.89769 15 8.57959C15 10.1201 14.4751 11.5367 13.5977 12.6655L18.0889 17.1567C18.4143 17.4822 18.4143 18.01 18.0889 18.3354C17.7635 18.6606 17.2365 18.6606 16.9111 18.3354L12.4199 13.8442C11.291 14.7218 9.87357 15.2466 8.33301 15.2466C4.65131 15.2464 1.66708 12.2613 1.66699 8.57959C1.66699 4.8978 4.65126 1.91277 8.33301 1.9126ZM8.33301 3.57959C5.57173 3.57977 3.33301 5.81827 3.33301 8.57959C3.3331 11.3408 5.57179 13.5794 8.33301 13.5796C11.0944 13.5796 13.3329 11.3409 13.333 8.57959C13.333 5.81817 11.0944 3.57959 8.33301 3.57959Z" fill="currentColor"/>
</svg>
