<svg width="1200" height="630" viewBox="0 0 1200 630" fill="none" xmlns="http://www.w3.org/2000/svg" xmlns:xlink="http://www.w3.org/1999/xlink">
  <defs>
    <linearGradient id="bgGradient" x1="0" y1="0" x2="1200" y2="630" gradientUnits="userSpaceOnUse">
      <stop offset="0%" stop-color="#1E293B"/>
      <stop offset="100%" stop-color="#0F172A"/>
    </linearGradient>
    <linearGradient id="accentGradient" x1="0" y1="0" x2="1" y2="0">
      <stop offset="0%" stop-color="#3B82F6"/>
      <stop offset="50%" stop-color="#6366F1"/>
      <stop offset="100%" stop-color="#8B5CF6"/>
    </linearGradient>
    <radialGradient id="glowGradient" cx="0.5" cy="0.5" r="0.5">
      <stop offset="0%" stop-color="#3B82F6" stop-opacity="0.2"/>
      <stop offset="100%" stop-color="#3B82F6" stop-opacity="0"/>
    </radialGradient>
  </defs>
  
  <!-- Background -->
  <rect width="1200" height="630" fill="url(#bgGradient)"/>
  
  <!-- Decorative glow effects -->
  <ellipse cx="200" cy="150" rx="300" ry="200" fill="url(#glowGradient)" opacity="0.4"/>
  <ellipse cx="1000" cy="500" rx="350" ry="250" fill="url(#glowGradient)" opacity="0.3"/>
  
  <!-- Grid pattern overlay -->
  <pattern id="grid" width="40" height="40" patternUnits="userSpaceOnUse">
    <path d="M 40 0 L 0 0 0 40" fill="none" stroke="#1E293B" stroke-width="0.5" opacity="0.3"/>
  </pattern>
  <rect width="1200" height="630" fill="url(#grid)"/>
  
  <!-- Main content container -->
  <g transform="translate(80, 80)">
    <!-- Logo and brand -->
    <g>
      <!-- Rspress Logo -->
      <svg x="0" y="0" width="50" height="47.6" viewBox="0 0 1050 1e3" xmlns="http://www.w3.org/2000/svg">
        <path fill="#3B82F6" d="M644 262a1020 1020 0 0 1 95 68q44 36 79 81c1-4 3-7 6-9l51-46q18-15 43-11 21 2 35 20l3 1c23 7 48 10 72 19 15 4 17 24 6 32l-34 31a39 39 0 0 1-51 2 245 245 0 0 0-75-38l-45-5-3-2q-14-17-35-18-25-4-43 11l-51 46q-3 2-6 3-9 3-18 0-14-4-29-13-31-18-61-30a1 1 0 0 1 0-1l30-94a60 60 0 0 1 31-36zm-139-2q-21-4-39 9-15 10-30 27c-3 3-26 30-11 30l11-4 10-4 3-1a134 134 0 0 1 32-22zm-139-2q0 13-7 24-13 20-35 29l-6 2v1q6 7 14 12t13 6q15-1 22-17h1l1-5v-2a48 48 0 0 0 2-43zm122 23q-15 10-29 25-16 17-24 34-4 5-4 12c1 5 7 4 10 2l32-13 12-4 7-2 4-2 20-5 31-3 8-1 3-3-1-8-3-9-3-9-5-12q-1-5-5-9l-7-4-7-2q-14-1-28 6zm386 27-3 10 2 5 4 5a1 1 0 0 0 2 0l2-13v-2l-6-5zm10 46 12-30a1 1 0 0 0 0-2l-5-2-1 1zm21-23-3 7 1 1 27 11 10 5 19 11 9 5q5 3 9 1l2-2q1-7-2-12l-1-1a112 112 0 0 1-54-14z"/>
        <path fill="#7cc4ff" d="M800 359q-26 9-51 21l18-57 10-31 19-59 8-29 11-33v-1h-1l-23 39-18 35q-20 50-40 106l-18 54-42-3q3-44 13-84 8-28 21-61a676 676 0 0 1 52-99c12-20 27-43 40-61l31-39 29-31 12-11a1 1 0 0 1 2 1l5 58-2 69-4 37q0 10-5 17l-19 24-25 34c-3 3-8 10-5 14q2 3 6 3h1l19-8-16 58q-2 11-10 19z"/>
        <path fill="#fce969" d="M527 174a210 210 0 0 1-54 39q-22 10-45 15-20 4-41 0l-38-6q6-19 17-37 16-26 39-48a304 304 0 0 1 80-57l45-18q3-2 6-1v1q-2 9-8 18l-56 90q-6 9-8 18l1 1 13-6q11-6 23-8z"/>
        <path fill="#f9cf6c" d="m541 174-34 27q-33 27-75 35-22 4-44 0l-41-8 2-6 38 6q21 4 41-1 23-4 45-14a210 210 0 0 0 54-40z"/>
        <path fill="#f6b96e" d="m347 228 41 8q22 4 44 0 42-8 75-35l34-27q10 1 20 5 12 5 11 18 0 7-6 12l-21 18-23 24-20 26q-12 16-21 38l-8 21q-9-40-36-70l-5-5v-1l17-4 23-8 1-1q-4-3-9-2-19 1-35 5l-20 5-25 6a52 52 0 0 1-28 1q-11-2-12-13 0-9 3-21"/>
        <path fill="#f8f1f1" d="m777 263-3 7-14 42-15 49-11 35-21 71-15 54-6 24-4 17v1l-8 10 8-38 4-18q11-44 21-75l24-71 35-96 2-7z"/>
        <path fill="#f2f1ee" d="M604 426q-4-22-15-41c-14-25-43-46-73-32q-23 12-32 38l3-35q1-15 6-28l1-2 7-10a40 40 0 0 1 18-13l12-4q17-4 33 2a63 63 0 0 1 22 16l2 3q8 12 12 25t4 22l1 30zm-138-30-3-6q-7-16-21-26c-27-21-59-7-77 18a120 120 0 0 0-21 61h-1v-11q1-36 9-71a82 82 0 0 1 17-34l12-12c7-5 19-10 28-10q14-2 27 5l14 13q6 8 11 20l3 21 2 8z"/>
        <path fill="#f4be9a" d="m302 355-2 6q-1 16-6 31-9 31-28 60l-7 9q-14 13-30 23l-18 9-9-9c-11-8-27-9-40-7l-18 4q-15-13-27-30l-13-19q4-16 10-31a114 114 0 0 1 29-37q10-9 24-16 24-10 48-15 13-3 30-2 34 0 57 24m-130 21q-7 13 5 21 7 3 13-2l4-8 4-8q0-8-6-12-14-5-20 9m-41 51q8 2 15-5 10-9 14-22c2-8 0-18-9-20q-7-1-12 3l-7 3-1 1q-5 3-4 8l-1 2q-5 9-5 18 1 10 10 12"/>
        <path fill="#f08774" d="M302 355q10 10 15 19 6 12 8 28l-1 18-3 18q-8 33-20 65l-3 6q-9 15-15 32l-10 11q-4 5-10 7l-18 3-12 1q-5 0-11-4-10-5-17-13l13-27h1q6 4 15 2l12-4q20-12 29-33h-1l-18 17-14 6c-5 2-15 7-19 1l-12-15 18-9q16-10 30-23l7-9q19-29 28-60 5-15 6-31z"/>
        <path fill="#8099ff" d="m800 359-9 10c-4 5-2 13 5 12q6 0 12-3l1 1-5 11-49 84a360 360 0 0 1-31 46q-8 10-19 16v-1l4-15 12-45 22-75 6-20q25-12 51-21"/>
        <path fill="#f8f1f1" d="m194 387-4 8q-7 5-13 2-12-8-5-21c7-13 11-13 20-9q6 4 6 12z"/>
        <path fill="#f2f1ee" d="M146 423q-7 6-15 4-9-2-10-12 0-8 5-18v-2q0-5 5-8l1-1q3 0 6-3 6-5 13-3c9 2 11 12 9 20q-4 13-15 23"/>
        <path fill="#8099ff" d="m715 404-14 45q-13 43-22 81h-1l-6-49q-2-40 1-80z"/>
        <path fill="#b5655b" d="m298 509 3-6q12-32 20-65l3-18 1-18c4 14 4 24 6 43l-1 22-2 5-17 20z"/>
        <path fill="#f8f1f1" d="M559 442a80 80 0 0 1 0 67q-3 8-10 11-14 8-27-1c-18-12-24-38-21-58 2-16 12-38 32-38q18 3 26 19m-165 74c-18-20-18-54-4-76l7-9q13-9 27-3 16 11 21 32 4 24-7 45a34 34 0 0 1-22 17q-12 3-22-6"/>
        <path fill="#f7ca8c" d="M144 482q-17 6-31 17h-1q-8-7-9-18l-1-7q-3-21 2-42l13 19q12 17 27 30"/>
        <path fill="#b5655b" d="m662 485-6-23v-1q-29 17-49 42l-8 11-8 11q5-19 15-35 9-15 23-29 11-12 28-22l3-2h1l1 41z"/>
        <path fill="#704e4b" d="M390 440c-14 22-14 56 4 76q-9 1-18-5-9-5-13-15a100 100 0 0 1-8-47v-1q17-5 35-8"/>
        <path fill="#b5655b" d="m793 441-3 6-14 22q-7 11-18 20l28-49h1z"/>
        <path fill="#704e4b" d="M549 521q7-4 10-12c10-21 10-47 0-67l8 4a75 75 0 0 1 26 26v1l-3 12c-7 17-21 33-39 38l-1-1z"/>
        <path fill="#f08774" d="m865 575-10-9-20-20a67 67 0 0 0-62-19l-42 6q13-9 22-21v-1l-14 7 19-29q11-9 18-20t14-22l3-6q9 3 17 10l15 15 7 9q12 21 18 38l10 30q5 17 5 32"/>
        <path fill="#f4be9a" d="M558 533q6 11 16 18-2 20 0 45 3 31 17 54 10 18 24 33v1q-4 3-7 9-11 12-26 20l-9 6-23 10q-31 12-67 15a259 259 0 0 1-101-10l-24-25q-15-19-28-44-15-27-27-56-6-17-18-33l2-13q17 11 36 12 25 0 44-14 17-13 20-33l14 2 15-1c24-2 40-20 48-41q7-19 9-38l2-4 1 1v1l7 34q3 10 10 23 3 6 8 11l-1 1-21 7-31 8-7 1c-3 0-9 1-10 5l2 4h6l2 1q13 18 34 19t33-15q7-8 7-19a1 1 15 0 1 2 0l8 3q16 6 33 2"/>
        <path fill="#f08774" d="m662 485 1 7 8 60q1 5-1 16l-2 9v1l-20 1q-21-1-28 19l-4 16-2 21q-3 14-2 28a128 128 0 0 1-26-57l-3-23q-1-22 4-44l4-14 8-11 8-11q20-25 49-42l1 1q1 12 5 23m-275 43q-3 20-20 33-19 15-44 14-20-1-36-12l6-21q7-16 18-34l8-10a82 82 0 0 1 23-14h1q4 12 12 22l13 12z"/>
        <path fill="#efd9b0" d="M184 570q-12-12-20-26-15-23-28-48l24-8q12-3 25 0 15 5 24 19l1 1q0 8-5 16l-10 22z"/>
        <path fill="#e0c197" d="M136 496q13 25 28 48 8 14 20 26-17 38-38 75l-5-10v-1l-6-9-19-26q-16-21-18-47v-16l19-24 7-7q3-4 6-5z"/>
        <path fill="#f08774" d="M574 551q-10-7-16-18 15-6 25-18-6 17-9 36"/>
        <path fill="#f2a588" d="M865 575q0 11-2 20l-4 30c-9 0-19 0-26-8l-12-14q-14-13-33-20c-18-6-32-2-53 2l-23 2 3-4-1-5-9-27v-1l19-13 7-4 42-6q35-6 62 19l20 20z"/>
        <path fill="#f8f1f1" d="m506 524 1 1q0 13-10 21-9 8-22 8-15-1-24-14l25-6z"/>
        <path fill="#cfa67b" d="m98 536 1 16q1 26 17 47l19 26 6 9v1l5 10-10 18v1l-2 4h-1v-7q-1-18-15-30-21-21-50-19-14 0-23 7h-1q24-41 51-79z"/>
        <path fill="#b5655b" d="m283 541-2 7q-5 7-11 12l-11 3-18 1h-7a65 65 0 0 1-31-11 1 1 29 0 1 0-2l3-5q6 8 17 14l10 3 12-1 18-3q6-2 10-7z"/>
        <path fill="#c49468" d="m201 602-19-4 16-36h1a82 82 0 0 0 28 12v1q-16 10-26 27"/>
        <path fill="#f08774" d="m696 576 1-5h1l2 5zm-425-3-5 9-25 21-11 5-10 7-1 1q-5-1-10 1h-3v-1q8-20 25-32 12-7 23-10z"/>
        <path fill="#b5655b" d="m241 603 25-21 5-9h4l1 1q-2 14-1 27h-1l-6-2q-13-1-27 4"/>
        <path fill="#f4be9a" d="m859 625-4 18q-17 1-30 11l-20 16c1-16-19-21-32-18-13 4-26 14-31 27q-3 9 1 18l-23-9-22-11c-25-12-34 7-43 26a96 96 0 0 1-30-66c0-12 1-29 7-40q8-9 20-8 20 0 38-2h22l23-2c20-4 35-8 53-2q19 7 33 20l12 14c7 8 17 8 26 8m-54-18a20 15-35 0 0-24-1 20 15-35 0 0-7 24 20 15-35 0 0 24 1 20 15-35 0 0 7-24"/>
        <path fill="#f2a588" d="M382 734a157 157 0 0 1-51-27l-3-3q-10-11-17-23l-10-24-4-7-9-23q-6-24-3-51 12 16 18 33 12 29 27 56 13 25 28 44z"/>
        <path fill="#e0c197" d="M201 602c-3 6-8 15-4 21q3 5 8 5a134 134 0 0 0-25 32l-4 9c-2 11 6 22 18 19l-13 18q-28-1-49 17c-17 14-21 35-21 56 2 39 19 80 55 98q23 11 48 16 48 13 94 21 31 5 61-1l33-5a92 92 0 0 1 34 0l25 8a87 87 0 0 0 39 3l30-4q20-1 36-9l23-10q21-9 43-8l8 1h14l-8 3-27 11q-61 16-107 30l-13 3h-14l-2-1q-10-4-18-10-10-7-22-6-10 3-18 8a147 147 0 0 1-36 9l-14 3-33 8c-13 2-23 0-38-3l-13-3a74 74 0 0 1-26-10l-12-10c-6-5-12-1-17 2l-57-18q-32-10-54-34a161 161 0 0 1-36-74q-6-25 1-51l6-20q12-1 20-11 11-13 19-30 25-43 47-87z"/>
        <ellipse fill="#f8f1f1" transform="rotate(-35 1369 -935)" rx="19.6" ry="15.2"/>
        <path fill="#f08774" d="m271 611-3 8-7 14-8 11-6 2a134 134 0 0 0-32 22l-3 1-10 4-11 4c-15 0 8-27 11-30q15-17 30-27 18-13 38-9"/>
        <path fill="#b5655b" d="m253 644 8-11 7-14 2-8 4 2 1 3 4 26v1l-10-2-8 1z"/>
        <path fill="#c49468" d="M69 715q-5 4-8 9c-15 18-13 40-6 61q12 36 30 70-10-1-16-6-4-2-8-9l-17-28-4-8-9-41q-3-18-3-30l1-31 3-33 6-20c2-4 10-11 6-16l5-4q10-6 21-7 18 0 34 10v12q-2 9-5 14-14 23-41 30-5 1-5 3-3 3-1 7v1q8 9 17 16"/>
        <path fill="#b17a5c" d="M44 633c4 5-4 12-6 16l-6 20-3 33-1 31 3 30 9 41q-12-19-19-39-6-15-7-29l-2-26 2-16 3-13q4-13 12-29 7-11 15-19"/>
        <path fill="#b5655b" d="M614 635q2 22 9 41l-11-13q-1-15 2-28"/>
        <path fill="#f7ca8c" d="M855 643q-4 17-13 31c-13 21-38 32-62 43a156 156 0 0 1-46 12q-12 1-25-1-14-2-24-6-15-6-30-19c9-19 18-38 43-26l22 11 23 8q10 13 28 9a49 49 0 0 0 21-13q10-8 13-22l20-16q13-10 30-11"/>
        <path fill="#b17a5c" d="m114 642 4 7c7 12 6 32-2 43v2l-2 4v1q-7 16-22 16-5 0-13-5t-14-12v-1l6-2q22-10 35-29 7-11 7-24"/>
        <path fill="#f2f1ee" d="M805 670q-3 14-13 22a49 49 0 0 1-21 13q-18 5-28-9-4-8-1-17a46 46 0 0 1 31-27c13-3 33 2 32 18"/>
        <path fill="#f08774" d="M275 652q-1 15-5 25-5 18-20 32l-6 8-4 2-6-19a108 108 0 0 1 1-35l12-7q13-7 28-6"/>
        <path fill="#b5655b" d="m244 717 6-8q15-14 20-32 4-10 5-25l7 2 6 4q5 4 6 9l5 13 3 8 3 9 1 8-3 3-8 1-31 3z"/>
        <path fill="#f4a670" d="M236 665a108 108 0 0 0-1 35q1 9 5 19l-7 2-12 4c-11 3-26 11-32 13-3 2-9 3-10-2q1-7 4-12 8-17 24-34 14-15 29-25"/>
        <path fill="#b5655b" d="m622 692 1-1 6 6v2l-2 13a1 1 0 0 1-2 0l-4-5-2-5z"/>
        <path fill="#efd9b0" d="M181 706q-6 9-10 19c-4 9-3 21 8 24q7 2 14-1l18-8 36-12q21 5 41 12l41 17q31 13 62 18a280 280 0 0 0 84-2l34-5q28-5 58-2l50 5 1 5h1q6 3 9-3l4-11 11-26 3 3 16 3h5l18 8 21 13q10 8 24 3c9-6 8-16 5-25l1-1q21-2 43-11l17-7q14-6 27-14l22 84q4 12 4 24c0 29-33 35-55 36l-32 1a114 114 0 0 0-70 22l-14 11-24 3h-14l-8-1q-22-1-43 8l-22 10a112 112 0 0 1-37 9l-30 4a87 87 0 0 1-39-3l-25-8a92 92 0 0 0-35-1l-32 6q-30 6-61 1-46-8-94-21-26-5-48-16c-36-18-53-59-55-98 0-21 4-42 21-56a72 72 0 0 1 49-17"/>
        <path fill="#cfa67b" d="M899 789q0 5 2 8l7 10 1 2 3 13 4 22 1 6-1 1-37 21-14-7h-1l-12-10q6-5 10-11c11-16 6-38 1-55q-12-34-27-67l-4-6-3-12 4-3 9 16 2 3 35 43z"/>
        <path fill="#f2f1ee" d="m631 738 7-33 1-1 5 2a1 1 0 0 1 0 2z"/>
        <path fill="#e0c197" d="m829 704 4 12 3 6q15 33 27 67c5 17 11 39-1 56l-9 10q-5-2-9 0t-4 5l-1 11-1 1-16 3-6 2-2 1q-23 0-43-4c-7-2-14-14-22-7l-9 10q-5 4-11 5l-50 4 14-11a113 113 0 0 1 69-22l32-1c22-1 55-7 55-36q0-12-4-24l-22-84z"/>
        <path fill="#cfa67b" d="M69 715q9 8 19 11h8l-6 20q-7 26-1 51a160 160 0 0 0 36 74q22 25 54 34l57 18q-13 5-25 3l-26-7-32-10-15-6q-14-6-26-16-7-5-11-13l-3-11q-1-6-8-7l-5-1a493 493 0 0 1-30-70c-7-21-9-43 6-61q3-5 8-9"/>
        <path fill="#f4a670" d="m653 715 16 12a112 112 0 0 0 54 14l1 1q3 6 2 12l-2 2q-5 2-10-1l-8-5-19-11-10-5-27-11-1-1z"/>
        <path fill="#e0c197" d="M576 730h3q2 13 14 10l29-4-5 35-50-5q-30-3-58 2l-34 5a280 280 0 0 1-84 2q-31-5-62-18l-41-17q-20-7-41-12 9-4 17-5l34-3 11 1q13 2 19 5l12 4 4 1 9 3q37 18 79 21c48 4 98-3 141-24z"/>
        <path fill="#cfa67b" d="m622 736-29 4q-12 3-14-10h-2l3-1q15-4 31-5l12 2z"/>
        <path fill="#c49468" d="M667 742h-5l-16-3-3-3 1-3h1z"/>
        <path fill="#b17a5c" d="m914 875-5 1-16-1q-5 0-13-4l37-21 1-1-1-6-4-22-3-13-1-2-7-10q-2-3-2-8l22 28q8 10 15 23l2 8q1 2-1 3-9 3-15 11-2 7-8 13m-466 55-8 2q4-3 8-2"/>
      </svg>
      <text x="64" y="34" font-family="'Inter', -apple-system, BlinkMacSystemFont, 'Segoe UI', sans-serif" font-size="28" font-weight="700" fill="#F8FAFC" letter-spacing="-0.02em">
        Rspress
      </text>
    </g>
    
    <!-- Content section -->
    <g transform="translate(0, 140)">
      <!-- Line 1 - Main title -->
      <text font-family="'Inter', -apple-system, BlinkMacSystemFont, 'Segoe UI', sans-serif" font-size="64" font-weight="800" fill="#F8FAFC" letter-spacing="-0.03em">
        <tspan x="0" y="0">{{line1}}</tspan>
      </text>
      
      <!-- Line 2 - Subtitle -->
      <text font-family="'Inter', -apple-system, BlinkMacSystemFont, 'Segoe UI', sans-serif" font-size="36" font-weight="600" fill="#94A3B8" letter-spacing="-0.02em">
        <tspan x="0" y="80">{{line2}}</tspan>
      </text>
      
      <!-- Line 3 - Description -->
      <text font-family="'Inter', -apple-system, BlinkMacSystemFont, 'Segoe UI', sans-serif" font-size="28" font-weight="400" fill="#64748B" letter-spacing="-0.01em">
        <tspan x="0" y="140">{{line3}}</tspan>
      </text>
    </g>
    
    <!-- Decorative accent bar -->
    <rect x="0" y="420" width="160" height="6" rx="3" fill="url(#accentGradient)"/>
  </g>
  
  <!-- Bottom right decorative element -->
  <g transform="translate(1000, 500)">
    <circle cx="0" cy="0" r="80" fill="none" stroke="url(#accentGradient)" stroke-width="2" opacity="0.2"/>
    <circle cx="0" cy="0" r="60" fill="none" stroke="url(#accentGradient)" stroke-width="2" opacity="0.15"/>
    <circle cx="0" cy="0" r="40" fill="none" stroke="url(#accentGradient)" stroke-width="2" opacity="0.1"/>
  </g>
</svg>
